{
    "asset" : {
        "generator" : "Khronos glTF Blender I/O v1.7.33",
        "version" : "2.0"
    },
    "scene" : 0,
    "scenes" : [
        {
            "name" : "Scene",
            "nodes" : [
                0,
                1
            ]
        }
    ],
    "nodes" : [
        {
            "mesh" : 0,
            "name" : "Icosphere",
            "rotation" : [
                0.11161144077777863,
                0.04381448030471802,
                0.11523883789777756,
                0.9860747456550598
            ],
            "translation" : [
                -2.0834174156188965,
                4.31510591506958,
                -1.021496057510376
            ]
        },
        {
            "mesh" : 1,
            "name" : "Cone",
            "rotation" : [
                0.007027727086097002,
                -0.08793046325445175,
                -0.017308641225099564,
                0.9959514141082764
            ],
            "scale" : [
                2.2755815982818604,
                3.0260939598083496,
                2.3581182956695557
            ],
            "translation" : [
                -2.2600150108337402,
                -0.12062597274780273,
                -1.0825051069259644
            ]
        }
    ],
    "materials" : [
        {
            "doubleSided" : true,
            "name" : "Material.001",
            "pbrMetallicRoughness" : {
                "baseColorFactor" : [
                    0.6151762008666992,
                    0.4268893003463745,
                    0.5643329620361328,
                    1
                ],
                "metallicFactor" : 0.7536231875419617,
                "roughnessFactor" : 0.6159420013427734
            }
        },
        {
            "doubleSided" : true,
            "name" : "Material.002",
            "pbrMetallicRoughness" : {
                "baseColorFactor" : [
                    0.39311376214027405,
                    0.39311376214027405,
                    0.39311376214027405,
                    1
                ],
                "metallicFactor" : 0.782608687877655,
                "roughnessFactor" : 0.5
            }
        }
    ],
    "meshes" : [
        {
            "name" : "Icosphere",
            "primitives" : [
                {
                    "attributes" : {
                        "POSITION" : 0,
                        "NORMAL" : 1,
                        "TEXCOORD_0" : 2
                    },
                    "indices" : 3,
                    "material" : 0
                }
            ]
        },
        {
            "name" : "Cone.001",
            "primitives" : [
                {
                    "attributes" : {
                        "POSITION" : 4,
                        "NORMAL" : 5,
                        "TEXCOORD_0" : 6
                    },
                    "indices" : 7,
                    "material" : 1
                }
            ]
        }
    ],
    "accessors" : [
        {
            "bufferView" : 0,
            "componentType" : 5126,
            "count" : 240,
            "max" : [
                1.9021157026290894,
                2,
                1.9999998807907104
            ],
            "min" : [
                -1.9021157026290894,
                -2,
                -1.9999998807907104
            ],
            "type" : "VEC3"
        },
        {
            "bufferView" : 1,
            "componentType" : 5126,
            "count" : 240,
            "type" : "VEC3"
        },
        {
            "bufferView" : 2,
            "componentType" : 5126,
            "count" : 240,
            "type" : "VEC2"
        },
        {
            "bufferView" : 3,
            "componentType" : 5123,
            "count" : 240,
            "type" : "SCALAR"
        },
        {
            "bufferView" : 4,
            "componentType" : 5126,
            "count" : 128,
            "max" : [
                1,
                1,
                1
            ],
            "min" : [
                -1,
                -1,
                -1
            ],
            "type" : "VEC3"
        },
        {
            "bufferView" : 5,
            "componentType" : 5126,
            "count" : 128,
            "type" : "VEC3"
        },
        {
            "bufferView" : 6,
            "componentType" : 5126,
            "count" : 128,
            "type" : "VEC2"
        },
        {
            "bufferView" : 7,
            "componentType" : 5123,
            "count" : 186,
            "type" : "SCALAR"
        }
    ],
    "bufferViews" : [
        {
            "buffer" : 0,
            "byteLength" : 2880,
            "byteOffset" : 0
        },
        {
            "buffer" : 0,
            "byteLength" : 2880,
            "byteOffset" : 2880
        },
        {
            "buffer" : 0,
            "byteLength" : 1920,
            "byteOffset" : 5760
        },
        {
            "buffer" : 0,
            "byteLength" : 480,
            "byteOffset" : 7680
        },
        {
            "buffer" : 0,
            "byteLength" : 1536,
            "byteOffset" : 8160
        },
        {
            "buffer" : 0,
            "byteLength" : 1536,
            "byteOffset" : 9696
        },
        {
            "buffer" : 0,
            "byteLength" : 1024,
            "byteOffset" : 11232
        },
        {
            "buffer" : 0,
            "byteLength" : 372,
            "byteOffset" : 12256
        }
    ],
    "buffers" : [
        {
            "byteLength" : 12628,
            "uri" : "data:application/octet-stream;base64,"
        }
    ]
}
